# xmcd
#
# Track frame offsets:
# 150
# 27334
# 57767
# 73270
# 107337
# 147780
# 167469
# 188278
#
# Disc length: 3291 seconds
#
#
# Revision: 0
# Processed by: cddbd v1.5.1PL0 Copyright (c) Steve Scherf et al.
# Submitted via: FreeRIP 2.91 
#
DISCID=5e0cd908
DTITLE=Kalmex and the Riffmerchants - Electric Bukkake
DYEAR=2004
DGENRE=Psychedelic Rock
TTITLE0=Pig Family Gangbang
TTITLE1=P-Cam
TTITLE2=Designated DUI
TTITLE3=Force Fed
TTITLE4=Electric Bukkake
TTITLE5=Deadly Reprisal
TTITLE6=Soiled Cottons
TTITLE7=Enter the Virgin
EXTD=
EXTT0=
EXTT1=
EXTT2=
EXTT3=
EXTT4=
EXTT5=
EXTT6=
EXTT7=
PLAYORDER=
